<svg width="61" height="21" viewBox="0 0 61 21" fill="none" xmlns="http://www.w3.org/2000/svg">
    <g clip-path="url(#clip0)">
        <path d="M28.6369 20.5C34.1819 20.5 38.677 16.0228 38.677 10.5C38.677 4.97715 34.1819 0.5 28.6369 0.5C23.0918 0.5 18.5967 4.97715 18.5967 10.5C18.5967 16.0228 23.0918 20.5 28.6369 20.5Z" fill="#A3F2CB"/>
        <path d="M50.163 20.5C55.708 20.5 60.2031 16.0228 60.2031 10.5C60.2031 4.97715 55.708 0.5 50.163 0.5C44.6179 0.5 40.1228 4.97715 40.1228 10.5C40.1228 16.0228 44.6179 20.5 50.163 20.5Z" fill="#ACBEFB"/>
        <path fill-rule="evenodd" clip-rule="evenodd" d="M7.09749 20.5C12.6498 20.5 17.1509 16.0228 17.1509 10.5C17.1509 4.97715 12.6498 0.5 7.09749 0.5H0.203125V20.5H7.09749Z" fill="#64E5A6"/>
    </g>
    <defs>
        <clipPath id="clip0">
            <rect width="60" height="20" fill="white" transform="translate(0.203125 0.5)"/>
        </clipPath>
    </defs>
</svg>
